<mxfile host="app.diagrams.net" modified="2023-12-19T02:48:28.793Z" agent="Mozilla/5.0 (X11; Ubuntu; Linux x86_64; rv:109.0) Gecko/20100101 Firefox/116.0" version="22.1.11" etag="rufqKIdOsx5HaKuQ0pI4" type="github">
  <diagram name="第 1 页" id="Ox6YS5sqS8xHhFe-btTb">
    <mxGraphModel>
      <root>
        <mxCell id="0" />
        <mxCell id="1" parent="0" />
      </root>
    </mxGraphModel>
  </diagram>
</mxfile>
